<svg xmlns="http://www.w3.org/2000/svg" viewBox="0 0 128 128" fill="none"><rect width="128" height="128" rx="24" fill="#0D0D0D"/><circle cx="64" cy="64" r="52" stroke="#2BA8AD" stroke-opacity=".25"/><rect x="24" y="50" width="80" height="42" rx="8" stroke="#F0B668" stroke-width="7"/><path d="M38 50V36c0-8 6-14 14-14h24c8 0 14 6 14 14v14" stroke="#2BA8AD" stroke-width="7"/><path d="M48 72h32" stroke="#2BA8AD" stroke-width="6" stroke-linecap="round"/><path d="M88 62h10c4 0 6 2 6 6v8c0 4-2 6-6 6H88" stroke="#F0B668" stroke-width="7" stroke-linecap="round"/><path d="M52 34c0-6 4-10 10-14" stroke="#F0B668" stroke-width="5" stroke-linecap="round"/><path d="M70 34c0-6 4-10 10-14" stroke="#F0B668" stroke-width="5" stroke-linecap="round"/></svg>